# xmcd
#
# Track frame offsets: 
#        150
#        13035
#        25108
#        36106
#        47930
#        60275
#        69800
#        80432
#        93317
#        102404
#        116145
#        127395
#        138500
#        149015
#        158121
#        168919
#        179140
#        191006
#        202658
#        212877
#        226071
#        235754
#        246049
#        253363
#        263728
#
# Disc length: 3680 seconds
#
# Revision: 1
# Processed by: cddbd v1.5.2PL0 Copyright (c) Steve Scherf et al.
# Submitted via: ExactAudioCopyFreeDBPlugin 1.0
#
DISCID=670e5e19
DTITLE=Various Artist - Soul Sixties [Real Gone Music]
DYEAR=2016
DGENRE=Soul
TTITLE0=Etta James - Stop the Wedding
TTITLE1=Jerry Butler - You Can Run (But You Can't Hide)
TTITLE2=The Womack Brothers - Couldn't Hear Nobody Play
TTITLE3=Tony Clarke - Love Must Be Taboo
TTITLE4=Aretha Franklin - I Surrender, Dear
TTITLE5=Baby Washington - Hush Heart
TTITLE6=Chuck Jackson - Gettin' Ready for the Heartbreak
TTITLE7=James Brown - Three Hearts in a Tangle
TTITLE8=Jan Bradley - Mama Didn't Lie
TTITLE9=Wilson Pickett - Let Me Your Boy
TTITLE10=Yvonne Baker and The Sensations - Party Across the Hall
TTITLE11=The Cookies - Chains
TTITLE12=The Darlettes - The Wobble
TTITLE13=Judy Clay - Do You Think That's Right
TTITLE14=Barrett Strong - Seven Sins
TTITLE15=Billy Bland - All I Want to Do is Cry
TTITLE16=Eddie Holland - You Deserve What You Got
TTITLE17=Ernie K-Doe - Popeye Joe
TTITLE18=Gladys Knight and The Pips - Operator
TTITLE19=Chuck Jackson - Come On and Love Me
TTITLE20=Fontella Bass - I Don't Hurt Anymore
TTITLE21=Jesse Anderson - You'd Better Think Twice
TTITLE22=Jewel Akens - Wee Bit More of Your Lovin'
TTITLE23=Syl Johnson - I Wanna Know
TTITLE24=The Charters - Show Me Some Sign
EXTD=
EXTT0=
EXTT1=
EXTT2=
EXTT3=
EXTT4=
EXTT5=
EXTT6=
EXTT7=
EXTT8=
EXTT9=
EXTT10=
EXTT11=
EXTT12=
EXTT13=
EXTT14=
EXTT15=
EXTT16=
EXTT17=
EXTT18=
EXTT19=
EXTT20=
EXTT21=
EXTT22=
EXTT23=
EXTT24=
PLAYORDER=
